# xmcd CD database file
#
# Track frame offsets:
#	150
#	22800
#	50625
#	75825
#	97801
#	137252
#	175503
#	210978
#	236703
#	279680
#
# Disc length: 4079 seconds
#
# Revision: 0
# Processed by: cddbd v1.4PL0 Copyright (c) Steve Scherf et al.
# Submitted via: CDex 1.50beta9
#
DISCID=6d0fed0a
DTITLE=Joe Beck Trio - Strangers In The Night
DYEAR=1999
DGENRE=Jazz
TTITLE0=Strangers In The Night
TTITLE1=All Of Me
TTITLE2=I Dont't Stand A Ghost Of A Chance
TTITLE3=I'm A Fool To Want You
TTITLE4=Once I Loved
TTITLE5=The Girl Next Door
TTITLE6=Angel Eyes
TTITLE7=Last Night When We Were Young
TTITLE8=Black Orpheus
TTITLE9=Nancy (With The Laughing Face)
EXTD=YEAR: 1999
EXTT0=
EXTT1=
EXTT2=
EXTT3=
EXTT4=
EXTT5=
EXTT6=
EXTT7=
EXTT8=
EXTT9=
PLAYORDER=
